<svg width="127" height="127" viewBox="0 0 127 127" fill="none" xmlns="http://www.w3.org/2000/svg">
<path d="M63.5 11.9073C60.8686 11.9073 58.3449 12.9527 56.4842 14.8134C54.6235 16.6741 53.5781 19.1978 53.5781 21.8292C53.5781 24.4607 54.6235 26.9843 56.4842 28.845C58.3449 30.7057 60.8686 31.7511 63.5 31.7511C66.1314 31.7511 68.6551 30.7057 70.5158 28.845C72.3765 26.9843 73.4219 24.4607 73.4219 21.8292C73.4219 19.1978 72.3765 16.6741 70.5158 14.8134C68.6551 12.9527 66.1314 11.9073 63.5 11.9073ZM36.0759 11.9232C35.2941 11.853 34.5091 12.0162 33.82 12.3921C33.131 12.7681 32.5689 13.3399 32.2048 14.0353C31.8407 14.7307 31.6911 15.5185 31.7747 16.299C31.8584 17.0794 32.1716 17.8176 32.6747 18.4201L51.5938 41.0975V52.2497C40.7352 53.476 31.75 56.4804 31.75 61.5167C31.75 66.5531 40.7352 69.5574 51.5938 70.7877V71.0496L43.7356 110.352C43.5687 111.367 43.8026 112.408 44.388 113.254C44.9733 114.1 45.8645 114.686 46.8734 114.888C47.8824 115.09 48.9303 114.892 49.7961 114.336C50.6619 113.78 51.278 112.909 51.5144 111.908L57.2294 83.3448H69.7706L75.4856 111.9C75.569 112.428 75.7582 112.933 76.0418 113.386C76.3254 113.839 76.6976 114.231 77.136 114.536C77.5744 114.842 78.07 115.056 78.5931 115.165C79.1163 115.275 79.6561 115.277 80.1803 115.173C80.7044 115.069 81.2021 114.86 81.6435 114.558C82.0849 114.257 82.4609 113.87 82.7489 113.419C83.0369 112.969 83.231 112.465 83.3196 111.938C83.4082 111.411 83.3894 110.872 83.2644 110.352L75.4062 71.0417V70.7877C86.2648 69.5574 95.25 66.5531 95.25 61.5167C95.25 56.4804 86.2648 53.476 75.4062 52.2457V41.1332L94.3293 18.4201C95.0035 17.6107 95.3291 16.567 95.2346 15.5178C95.1402 14.4687 94.6333 13.4999 93.8252 12.8241C93.0156 12.1515 91.9725 11.8273 90.9243 11.9226C89.8761 12.0178 88.9084 12.5247 88.2332 13.3321L69.5801 35.7198H57.4477L38.7667 13.3361C38.4338 12.9345 38.0246 12.6029 37.5627 12.3604C37.1009 12.1179 36.5955 11.9693 36.0759 11.9232ZM51.5938 56.2303V66.8031C41.1004 65.5529 35.7188 62.8581 35.7188 61.5167C35.7188 60.1753 41.1004 57.4805 51.5938 56.2303ZM75.4062 56.2303C85.8996 57.4805 91.2812 60.1753 91.2812 61.5167C91.2812 62.8581 85.8996 65.5529 75.4062 66.8031V56.2303Z" fill="#213D68"/>
</svg>
