<svg width="129" height="129" viewBox="0 0 129 129" fill="none" xmlns="http://www.w3.org/2000/svg">
<path d="M83.9847 21.5C83.9847 27.437 79.1719 32.25 73.2347 32.25C67.2977 32.25 62.4847 27.437 62.4847 21.5C62.4847 15.5629 67.2977 10.75 73.2347 10.75C79.1719 10.75 83.9847 15.5629 83.9847 21.5ZM69.0492 76.3164L83.0051 90.0869C83.5402 90.615 83.9586 91.2495 84.2333 91.9493L91.6758 110.911C92.7602 113.675 91.3992 116.794 88.6359 117.878C85.8727 118.963 82.7535 117.602 81.6689 114.839L74.6432 96.9381L50.6471 73.2607C49.4732 72.1024 48.8959 70.4692 49.0813 68.8304L51.0034 51.847C46.3704 56.4499 42.7966 62.9259 40.0578 71.5063C39.1553 74.3341 36.1311 75.895 33.303 74.9923C30.4749 74.0895 28.9143 71.0653 29.817 68.2375C34.8432 52.4901 43.1882 40.7033 57.189 35.2979L57.2527 35.2737C60.8182 33.9488 64.528 34.0555 67.8317 35.7636C71.0073 37.4052 73.2675 40.2402 74.7475 43.4176C75.3704 44.7555 75.9469 46.0057 76.4879 47.1793C77.7989 50.0222 78.9032 52.4173 79.9623 54.5221C81.4506 57.4794 82.6466 59.437 83.8285 60.8141C84.9242 62.0904 86.0146 62.8746 87.404 63.4169C88.8974 64.0004 90.991 64.4022 94.2235 64.4992C97.1908 64.5882 99.5241 67.0658 99.4351 70.033C99.3459 73 96.8686 75.3333 93.9013 75.2444C90.0181 75.128 86.5698 74.6319 83.4931 73.4306C80.3125 72.1884 77.8045 70.3007 75.6717 67.8161C74.3266 66.249 73.1471 64.4621 72.0414 62.5169L69.0492 76.3164Z" fill="#213D68"/>
<path d="M49.081 81.2148L57.9903 89.76L53.8908 103.594C53.5734 104.665 52.9308 105.61 52.0517 106.298L38.2525 117.108C35.9157 118.939 32.5372 118.528 30.7065 116.192C28.8758 113.855 29.2862 110.476 31.6232 108.646L44.0715 98.894L47.8224 86.2359L49.081 81.2148Z" fill="#213D68"/>
</svg>
