<svg width="128" height="128" viewBox="0 0 128 128" fill="none" xmlns="http://www.w3.org/2000/svg">
<path d="M28 8C24.8174 8 21.7652 9.26428 19.5147 11.5147C17.2643 13.7652 16 16.8174 16 20C16 23.1826 17.2643 26.2348 19.5147 28.4853C21.7652 30.7357 24.8174 32 28 32C31.1826 32 34.2348 30.7357 36.4853 28.4853C38.7357 26.2348 40 23.1826 40 20C40 16.8174 38.7357 13.7652 36.4853 11.5147C34.2348 9.26428 31.1826 8 28 8ZM96.124 24C95.7319 23.978 95.342 24.0711 95.0023 24.268C94.6625 24.4649 94.3878 24.7569 94.212 25.108L82.212 49.1C81.9733 49.5742 81.9328 50.1238 82.0993 50.6279C82.2658 51.132 82.6258 51.5493 83.1 51.788C83.5742 52.0267 84.1238 52.0672 84.6279 51.9007C85.132 51.7342 85.5493 51.3742 85.788 50.9L90 42.468V56H88C87.4696 56 86.9609 56.2107 86.5858 56.5858C86.2107 56.9609 86 57.4696 86 58C86 58.5304 86.2107 59.0391 86.5858 59.4142C86.9609 59.7893 87.4696 60 88 60H96C96.5304 60 97.0391 59.7893 97.4142 59.4142C97.7893 59.0391 98 58.5304 98 58C98 57.4696 97.7893 56.9609 97.4142 56.5858C97.0391 56.2107 96.5304 56 96 56H94V34.584C94 34.556 93.984 34.536 93.984 34.508L97.788 26.892C97.9371 26.5966 98.0105 26.2688 98.0014 25.938C97.9924 25.6072 97.9012 25.2839 97.7362 24.9971C97.5712 24.7103 97.3375 24.469 97.056 24.2949C96.7746 24.1209 96.4543 24.0195 96.124 24ZM26 34.688C22.8174 34.688 19.7652 35.9523 17.5147 38.2027C15.2643 40.4532 14 43.5054 14 46.688V76C14 79.1826 15.2643 82.2348 17.5147 84.4853C19.7652 86.7357 22.8174 88 26 88H46V114C46 115.591 46.6321 117.117 47.7574 118.243C48.8826 119.368 50.4087 120 52 120C53.5913 120 55.1174 119.368 56.2426 118.243C57.3679 117.117 58 115.591 58 114V82C58 80.4087 57.3679 78.8826 56.2426 77.7574C55.1174 76.6321 53.5913 76 52 76H38V55.04L44.936 59.16C45.864 59.708 46.92 60 48 60H64C64.916 60 65.772 59.78 66.548 59.416C66.908 59.776 67.416 60 67.968 60H76C76.5304 60 77.0391 59.7893 77.4142 59.4142C77.7893 59.0391 78 58.5304 78 58C78 57.4696 77.7893 56.9609 77.4142 56.5858C77.0391 56.2107 76.5304 56 76 56H69.632C69.856 55.372 70 54.704 70 54C70 52.4087 69.3679 50.8826 68.2426 49.7574C67.1174 48.6321 65.5913 48 64 48H49.648L35.772 39.76C34.6687 38.1932 33.2053 36.9143 31.5047 36.0309C29.8041 35.1476 27.9163 34.6856 26 34.684V34.688ZM6.008 55.968C4.94713 55.968 3.92972 56.3894 3.17957 57.1396C2.42943 57.8897 2.008 58.9071 2.008 59.968L2 96C2.00064 96.7852 2.23234 97.5528 2.66623 98.2072C3.10012 98.8616 3.71701 99.3738 4.44 99.68L4.444 99.688C4.924 99.888 5.444 100 6 100H18V110.744L10.72 116.392C10.5004 116.548 10.3148 116.748 10.1742 116.978C10.0336 117.208 9.94095 117.464 9.90184 117.731C9.86274 117.997 9.87797 118.269 9.94662 118.53C10.0153 118.791 10.1359 119.035 10.3013 119.248C10.4667 119.461 10.6735 119.638 10.9092 119.769C11.1448 119.9 11.4045 119.982 11.6727 120.01C11.9408 120.038 12.2119 120.011 12.4695 119.932C12.7272 119.853 12.9661 119.722 13.172 119.548L18 115.8V117.964C18 118.494 18.2107 119.003 18.5858 119.378C18.9609 119.753 19.4696 119.964 20 119.964C20.5304 119.964 21.0391 119.753 21.4142 119.378C21.7893 119.003 22 118.494 22 117.964V115.884L26.72 119.544C27.1392 119.865 27.6682 120.009 28.1923 119.943C28.7164 119.877 29.1934 119.607 29.52 119.192C29.8452 118.774 29.9911 118.244 29.9259 117.718C29.8606 117.192 29.5895 116.714 29.172 116.388L22 110.828V100H33.944C35.0049 100 36.0223 99.5786 36.7724 98.8284C37.5226 98.0783 37.944 97.0609 37.944 96C37.944 94.9391 37.5226 93.9217 36.7724 93.1716C36.0223 92.4214 35.0049 92 33.944 92H10L10.008 59.968C10.008 58.9071 9.58657 57.8897 8.83643 57.1396C8.08628 56.3894 7.06887 55.968 6.008 55.968ZM54 64C52.9391 64 51.9217 64.4214 51.1716 65.1716C50.4214 65.9217 50 66.9391 50 68C50 69.0609 50.4214 70.0783 51.1716 70.8284C51.9217 71.5786 52.9391 72 54 72H62V116C62 117.061 62.4214 118.078 63.1716 118.828C63.9217 119.579 64.9391 120 66 120C67.0609 120 68.0783 119.579 68.8284 118.828C69.5786 118.078 70 117.061 70 116V72H106V116C106 117.061 106.421 118.078 107.172 118.828C107.922 119.579 108.939 120 110 120C111.061 120 112.078 119.579 112.828 118.828C113.579 118.078 114 117.061 114 116V72H122C123.061 72 124.078 71.5786 124.828 70.8284C125.579 70.0783 126 69.0609 126 68C126 66.9391 125.579 65.9217 124.828 65.1716C124.078 64.4214 123.061 64 122 64H54Z" fill="#213D68"/>
</svg>
