<svg width="128" height="128" viewBox="0 0 128 128" fill="none" xmlns="http://www.w3.org/2000/svg">
<path d="M63.992 0C60.8094 0 57.7572 1.26428 55.5067 3.51472C53.2563 5.76515 51.992 8.8174 51.992 12C51.992 15.1826 53.2563 18.2348 55.5067 20.4853C57.7572 22.7357 60.8094 24 63.992 24C67.1746 24 70.2268 22.7357 72.4773 20.4853C74.7277 18.2348 75.992 15.1826 75.992 12C75.992 8.8174 74.7277 5.76515 72.4773 3.51472C70.2268 1.26428 67.1746 0 63.992 0ZM51.992 28C51.964 28 51.936 28.016 51.908 28.016C51.1067 28.0001 50.3104 28.146 49.5667 28.445C48.8231 28.744 48.1473 29.1899 47.58 29.756L29.672 47.664C28.5472 48.7892 27.9153 50.315 27.9153 51.906C27.9153 53.497 28.5472 55.0228 29.672 56.148L47.772 74.244C47.84 74.308 48 74.328 48 74.392V122C48 123.591 48.6321 125.117 49.7574 126.243C50.8826 127.368 52.4087 128 54 128C55.5913 128 57.1174 127.368 58.2426 126.243C59.3679 125.117 60 123.591 60 122V92H68V122C68 123.591 68.6321 125.117 69.7574 126.243C70.8826 127.368 72.4087 128 74 128C75.5913 128 77.1174 127.368 78.2426 126.243C79.3679 125.117 80 123.591 80 122V74.408C80 74.34 80.16 74.312 80.236 74.244L98.328 56.148C99.4528 55.0228 100.085 53.497 100.085 51.906C100.085 50.315 99.4528 48.7892 98.328 47.664L80.42 29.756C79.224 28.56 77.652 27.988 76.084 28.016C76.052 28.016 76.024 28 75.992 28H51.992ZM80 46.296L85.608 51.908L80 57.516V46.296ZM48 46.32V57.492L42.416 51.908L48 46.32Z" fill="#213D68"/>
</svg>
